PathFileType	4	(x/y/z)	S09_M20_T05
DataRate	CameraRate	NumFrames	NumMarkers	Units	OrigDataRate	OrigDataStartFrame	OrigNumFrames
240	240	8	51	mm	240	218	580
Frame#	Time	Sternum			R.Acromium			L.Acromium			Top.Head			R.ASIS			L.ASIS			R.PSIS			L.PSIS			R.Great.Tro			L.Great.Tro			R.Iliac.Crest			L.Iliac.Crest			V.Sacral			R.Thigh.Upper.Post			R.Thigh.Lower.Ant			R.Thigh.Lower.Post			R.Thigh.Upper.Ant			R.Knee.Lat			R.Knee.Med			R.Shank.Upper.Post			R.Shank.Lower.Ant			R.Shank.Lower.Post			R.Shank.Upper.Ant			R.Ankle.Lat			R.Ankle.Med			R.Heel.Upper			R.Heel.Med			R.Heel.Lat			R.Toe.Lat			R.Toe.Med			R.Toe.Tip			L.Thigh.Upper.Post			L.Thigh.Lower.Ant			L.Thigh.Lower.Post			L.Thigh.Upper.Ant			L.Knee.Lat			L.Knee.Med			L.Shank.Upper.Post			L.Shank.Lower.Ant			L.Shank.Lower.Post			L.Shank.Upper.Ant			L.Ankle.Lat			L.Ankle.Med			L.Heel.Upper			L.Heel.Med			L.Heel.Lat			L.Toe.Lat			L.Toe.Med			L.Toe.Tip			Cervical.Spine			Back			
		X1	Y1	Z1	X2	Y2	Z2	X3	Y3	Z3	X4	Y4	Z4	X5	Y5	Z5	X6	Y6	Z6	X7	Y7	Z7	X8	Y8	Z8	X9	Y9	Z9	X10	Y10	Z10	X11	Y11	Z11	X12	Y12	Z12	X13	Y13	Z13	X14	Y14	Z14	X15	Y15	Z15	X16	Y16	Z16	X17	Y17	Z17	X18	Y18	Z18	X19	Y19	Z19	X20	Y20	Z20	X21	Y21	Z21	X22	Y22	Z22	X23	Y23	Z23	X24	Y24	Z24	X25	Y25	Z25	X26	Y26	Z26	X27	Y27	Z27	X28	Y28	Z28	X29	Y29	Z29	X30	Y30	Z30	X31	Y31	Z31	X32	Y32	Z32	X33	Y33	Z33	X34	Y34	Z34	X35	Y35	Z35	X36	Y36	Z36	X37	Y37	Z37	X38	Y38	Z38	X39	Y39	Z39	X40	Y40	Z40	X41	Y41	Z41	X42	Y42	Z42	X43	Y43	Z43	X44	Y44	Z44	X45	Y45	Z45	X46	Y46	Z46	X47	Y47	Z47	X48	Y48	Z48	X49	Y49	Z49	X50	Y50	Z50	X51	Y51	Z51	

218	0.90417	404.7	1184	308.35	251.43	1413.8	448.58	245.21	1414	147.58	223.02	1714.2	290.62	378.46	1017.4	412.89	355.21	991.98	166.95	150.78	1026.5	356.12	151.56	1024.6	266.78	318.23	933.79	496.44	260.85	901.14	111.59	284.13	1095	464.59	245.37	1082.3	134.46	131.2	990.53	310.46	381.13	680.72	464.52	467.08	604.32	405.28	393.14	592.49	430.85	448.96	686.77	440.43	460.39	526.61	396.51	434.7	518.59	278.92	397.56	348.4	415.95	463.18	288.42	392.37	393.25	272.41	405.52	461.59	361.83	405.69	411.27	90.116	383.45	430.04	101.33	294.46	345.93	75.403	333.2	356.99	45.018	303.29	348.71	43.411	367.57	509.58	44.178	414.96	553.97	50.69	309.09	599.11	74.697	351.48	163.92	662.28	163.09	218.59	553.85	127.29	163.55	571.49	166.57	218.21	643.13	118.23	184.28	488.24	131.77	243.07	465.43	254.61	62.541	441.19	130.62	29.564	335.56	136.09	2.2081	394	140.72	90.704	383.53	126.95	-143.54	258.18	166.34	-124.89	232.88	253.68	-196.38	296.75	233.42	-205.05	273.39	267.83	-226.44	285.04	209.8	-169.54	132.38	131.45	-124.85	94.715	227.8	-101.98	60.031	160.33	161.97	1458.3	310.04	138.9	1187	292.65
219	0.90833	410.04	1185.6	308.82	256.74	1415.3	449.18	250.1	1415.2	148.17	228.56	1715.5	290.99	384.04	1018.2	413.32	360.16	993.3	167.43	156.27	1027.8	357.28	156.72	1025.6	267.97	323.6	934.59	497.05	266.32	902.25	112.29	290.13	1096	465.4	250.16	1083.5	135.37	136.64	991.59	311.73	384.53	681.08	464.93	469.85	604.05	405.56	395.85	592.76	431.2	452.39	686.63	440.73	462.59	526.43	396.76	436.85	518.63	279.13	398.94	348.46	416.11	464.32	288.24	392.45	394.32	272.49	405.61	463.01	361.65	405.82	411.58	90.204	383.39	430.27	101.3	294.38	346.07	75.552	333.16	357.07	45.114	303.29	348.81	43.597	367.57	509.71	44.113	414.91	554.08	50.171	308.88	599.42	73.993	351.28	172.33	662.11	163.13	228.19	554.4	127.05	172.99	571.31	166.43	226.77	643.66	118.16	194.47	488.65	131.53	253.69	466.04	254.32	72.884	441.88	131.05	39.84	336.26	136.51	12.553	394.7	141.35	100.98	384.2	127.17	-133.17	259.13	167.63	-114.04	233.64	254.8	-186.34	296.91	235.08	-194.69	273.28	269.42	-216.3	285.04	211.46	-158	133.5	132.08	-112.75	95.749	228.1	-89.7	61.66	160.4	167.25	1459.5	310.69	144.27	1188.1	293.79
220	0.9125	415.35	1187.1	309.26	262.03	1416.8	449.78	254.97	1416.4	148.75	234.08	1716.8	291.35	389.58	1019.1	413.7	365.06	994.59	167.86	161.72	1029.1	358.41	161.84	1026.6	269.13	328.92	935.37	497.62	271.75	903.35	112.97	296.09	1097	466.18	254.93	1084.6	136.27	142.02	992.68	312.95	387.91	681.46	465.34	472.6	603.8	405.81	398.54	593.05	431.56	455.78	686.5	441.01	464.74	526.26	397.01	438.97	518.67	279.35	400.28	348.52	416.27	465.43	288.08	392.54	395.36	272.58	405.7	464.4	361.47	405.96	411.88	90.297	383.33	430.49	101.27	294.29	346.21	75.707	333.12	357.14	45.215	303.29	348.91	43.789	367.57	509.85	44.045	414.86	554.2	49.675	308.67	599.73	73.303	351.09	180.76	661.97	163.18	237.8	555	126.83	182.45	571.19	166.3	235.34	644.23	118.09	204.68	489.1	131.32	264.31	466.74	254.06	83.277	442.54	131.49	50.232	336.9	136.92	22.977	395.33	142	111.34	384.86	127.39	-122.64	259.89	168.9	-103.01	234.24	255.91	-176.17	296.84	236.71	-184.17	272.96	270.98	-206.02	284.78	213.11	-146.25	134.41	132.71	-100.4	96.625	228.42	-77.151	63.167	160.5	172.51	1460.7	311.34	149.6	1189.3	294.93
221	0.91667	420.64	1188.5	309.66	267.3	1418.3	450.37	259.83	1417.6	149.33	239.59	1718.1	291.69	395.08	1019.9	414.06	369.93	995.87	168.28	167.12	1030.3	359.48	166.94	1027.6	270.25	334.19	936.14	498.16	277.16	904.45	113.61	302.01	1098.1	466.93	259.66	1085.8	137.15	147.35	993.79	314.12	391.27	681.85	465.75	475.32	603.57	406.05	401.22	593.35	431.92	459.15	686.41	441.27	466.86	526.1	397.27	441.06	518.73	279.58	401.58	348.58	416.44	466.51	287.93	392.63	396.37	272.67	405.8	465.75	361.31	406.11	412.18	90.393	383.27	430.72	101.25	294.22	346.36	75.869	333.09	357.22	45.324	303.29	349.02	43.986	367.57	509.99	43.972	414.82	554.32	49.203	308.48	600.03	72.628	350.92	189.21	661.87	163.21	247.43	555.66	126.63	191.93	571.12	166.17	243.92	644.84	118.02	214.9	489.6	131.13	274.94	467.51	253.82	93.718	443.15	131.96	60.736	337.48	137.33	33.478	395.89	142.64	121.79	385.49	127.62	-111.95	260.44	170.15	-91.804	234.66	257	-165.86	296.56	238.3	-173.51	272.44	272.52	-195.61	284.29	214.72	-134.28	135.11	133.35	-87.824	97.34	228.75	-64.357	64.536	160.62	177.76	1461.8	311.99	154.89	1190.5	296.07
222	0.92083	425.9	1190	310.04	272.57	1419.8	450.95	264.68	1418.8	149.91	245.09	1719.4	292.04	400.54	1020.7	414.4	374.77	997.14	168.67	172.49	1031.6	360.51	172.01	1028.7	271.31	339.42	936.91	498.66	282.54	905.54	114.23	307.88	1099.1	467.64	264.38	1087.1	138	152.63	994.93	315.23	394.61	682.25	466.15	478.01	603.38	406.27	403.88	593.68	432.29	462.49	686.33	441.5	468.95	525.96	397.52	443.09	518.79	279.84	402.85	348.65	416.62	467.56	287.79	392.75	397.36	272.77	405.91	467.06	361.16	406.28	412.47	90.494	383.21	430.95	101.25	294.15	346.51	76.036	333.06	357.3	45.44	303.29	349.12	44.189	367.57	510.12	43.896	414.78	554.44	48.757	308.3	600.33	71.968	350.77	197.67	661.8	163.23	257.06	556.36	126.44	201.42	571.09	166.04	252.51	645.48	117.96	225.14	490.14	130.96	285.58	468.37	253.61	104.2	443.72	132.44	71.352	337.99	137.73	44.052	396.35	143.29	132.31	386.1	127.84	-101.11	260.8	171.37	-80.438	234.91	258.08	-155.41	296.07	239.86	-162.69	271.71	274.02	-185.04	283.58	216.3	-122.12	135.6	133.99	-75.036	97.892	229.11	-51.342	65.753	160.77	183.01	1463	312.63	160.16	1191.7	297.22
223	0.925	431.13	1191.4	310.4	277.82	1421.2	451.52	269.51	1420	150.49	250.58	1720.6	292.37	405.96	1021.5	414.72	379.59	998.41	169.04	177.81	1032.9	361.48	177.07	1029.8	272.32	344.59	937.67	499.13	287.91	906.64	114.82	313.69	1100	468.33	269.07	1088.3	138.83	157.87	996.09	316.29	397.94	682.67	466.54	480.67	603.2	406.48	406.53	594.02	432.67	465.81	686.27	441.72	471	525.83	397.78	445.07	518.85	280.11	404.07	348.73	416.8	468.58	287.66	392.88	398.31	272.87	406.01	468.33	361.02	406.47	412.76	90.597	383.16	431.19	101.25	294.09	346.66	76.209	333.02	357.38	45.563	303.29	349.23	44.395	367.57	510.26	43.814	414.74	554.56	48.337	308.12	600.63	71.325	350.65	206.14	661.77	163.24	266.7	557.11	126.26	210.92	571.11	165.92	261.11	646.16	117.91	235.39	490.71	130.81	296.23	469.3	253.43	114.73	444.24	132.92	82.076	338.43	138.12	54.697	396.74	143.93	142.9	386.68	128.07	-90.096	260.97	172.55	-68.914	235	259.13	-144.81	295.38	241.37	-151.72	270.8	275.47	-174.32	282.66	217.82	-109.78	135.87	134.63	-62.059	98.279	229.48	-38.123	66.81	160.95	188.24	1464.2	313.28	165.39	1192.8	298.35
224	0.92917	436.33	1192.8	310.73	283.07	1422.7	452.08	274.35	1421.1	151.07	256.06	1721.8	292.7	411.33	1022.2	415.03	384.4	999.67	169.4	183.08	1034.2	362.4	182.11	1030.9	273.27	349.73	938.42	499.58	293.26	907.73	115.37	319.45	1101	468.98	273.76	1089.5	139.63	163.05	997.26	317.27	401.26	683.1	466.94	483.31	603.04	406.68	409.17	594.37	433.06	469.1	686.22	441.92	473.02	525.71	398.05	446.99	518.92	280.4	405.26	348.81	416.98	469.57	287.54	393.03	399.24	272.99	406.12	469.56	360.89	406.68	413.05	90.703	383.11	431.43	101.26	294.04	346.8	76.387	332.99	357.46	45.692	303.29	349.34	44.605	367.58	510.39	43.729	414.72	554.68	47.944	307.96	600.92	70.698	350.54	214.61	661.76	163.24	276.35	557.9	126.11	220.43	571.16	165.81	269.71	646.87	117.87	245.66	491.31	130.68	306.87	470.31	253.28	125.3	444.72	133.42	92.906	338.8	138.5	65.411	397.03	144.57	153.57	387.24	128.3	-78.928	260.93	173.7	-57.24	234.91	260.16	-134.06	294.5	242.82	-140.6	269.71	276.88	-163.44	281.53	219.3	-97.244	135.95	135.28	-48.904	98.502	229.87	-24.714	67.698	161.17	193.46	1465.3	313.92	170.59	1194	299.48
225	0.93333	441.5	1194.1	311.04	288.31	1424.1	452.62	279.17	1422.2	151.65	261.52	1723	293.03	416.66	1023	415.34	389.2	1000.9	169.76	188.32	1035.5	363.26	187.14	1032	274.15	354.82	939.16	500	298.6	908.81	115.9	325.14	1101.9	469.61	278.44	1090.7	140.41	168.2	998.43	318.19	404.56	683.53	467.33	485.93	602.89	406.87	411.79	594.74	433.46	472.37	686.19	442.11	475.01	525.59	398.32	448.85	518.98	280.71	406.4	348.9	417.17	470.53	287.43	393.21	400.13	273.11	406.24	470.75	360.77	406.91	413.33	90.81	383.07	431.67	101.29	294	346.95	76.569	332.96	357.54	45.828	303.29	349.45	44.819	367.58	510.52	43.639	414.69	554.81	47.576	307.82	601.21	70.087	350.46	223.08	661.78	163.22	285.99	558.73	125.97	229.94	571.26	165.7	278.31	647.61	117.83	255.93	491.95	130.58	317.52	471.38	253.16	135.9	445.13	133.91	103.84	339.1	138.88	76.19	397.23	145.21	164.31	387.75	128.53	-67.602	260.7	174.81	-45.421	234.67	261.16	-123.16	293.42	244.21	-129.33	268.43	278.22	-152.4	280.2	220.71	-84.531	135.82	135.92	-35.585	98.563	230.28	-11.124	68.416	161.42	198.68	1466.5	314.55	175.77	1195.1	300.6
